HIERARCHY
ROOT Hips
{
  OFFSET -35.2597 29.1586 114.425
  CHANNELS 6 Xposition Yposition Zposition Zrotation Xrotation Yrotation
  JOINT LeftUpLeg
  {
    OFFSET 8.64259 1.95398 -2.38835
    CHANNELS 3 Zrotation Xrotation Yrotation
    JOINT LeftLeg
    {
      OFFSET 43.7702 0 0
      CHANNELS 3 Zrotation Xrotation Yrotation
      JOINT LeftFoot
      {
        OFFSET 40.6238 0 0
        CHANNELS 3 Zrotation Xrotation Yrotation
        JOINT LeftToeBase
        {
          OFFSET 12.7242 0 0
          CHANNELS 3 Zrotation Xrotation Yrotation
          End Site
          {
            OFFSET 0 0 0
          }
        }
      }
    }
  }
  JOINT RightUpLeg
  {
    OFFSET -8.2249 1.95398 -2.59336
    CHANNELS 3 Zrotation Xrotation Yrotation
    JOINT RightLeg
    {
      OFFSET 43.5653 0 0
      CHANNELS 3 Zrotation Xrotation Yrotation
      JOINT RightFoot
      {
        OFFSET 40.6238 0 0
        CHANNELS 3 Zrotation Xrotation Yrotation
        JOINT RightToeBase
        {
          OFFSET 12.7242 0 0
          CHANNELS 3 Zrotation Xrotation Yrotation
          End Site
          {
            OFFSET 0 0 0
          }
        }
      }
    }
  }
  JOINT Spine
  {
    OFFSET 0.165834 0.87714 6.61349
    CHANNELS 3 Zrotation Xrotation Yrotation
    JOINT Spine1
    {
      OFFSET 7.38963 1.71661e-005 0
      CHANNELS 3 Zrotation Xrotation Yrotation
      JOINT Spine2
      {
        OFFSET 11.9445 1.14441e-005 0
        CHANNELS 3 Zrotation Xrotation Yrotation
        JOINT Spine3
        {
          OFFSET 14.7254 4.19617e-005 0
          CHANNELS 3 Zrotation Xrotation Yrotation
          JOINT Spine4
          {
            OFFSET 10.9679 0 0
            CHANNELS 3 Zrotation Xrotation Yrotation
            JOINT RightShoulder
            {
              OFFSET 2.46616 -1.6653 3.69651
              CHANNELS 3 Zrotation Xrotation Yrotation
              JOINT RightArm
              {
                OFFSET 13.0012 0 0
                CHANNELS 3 Zrotation Xrotation Yrotation
                JOINT RightForeArm
                {
                  OFFSET 28.7848 1.62311e-005 0
                  CHANNELS 3 Zrotation Xrotation Yrotation
                  JOINT RightHand
                  {
                    OFFSET 26.5688 1.62095e-005 0
                    CHANNELS 3 Zrotation Xrotation Yrotation
                    End Site
                    {
                      OFFSET 0 0 0
                    }
                  }
                }
              }
            }
            JOINT LeftShoulder
            {
              OFFSET 2.38034 -1.29275 -3.7523
              CHANNELS 3 Zrotation Xrotation Yrotation
              JOINT LeftArm
              {
                OFFSET 16.3182 6.07031e-005 0
                CHANNELS 3 Zrotation Xrotation Yrotation
                JOINT LeftForeArm
                {
                  OFFSET 27.0901 0 0
                  CHANNELS 3 Zrotation Xrotation Yrotation
                  JOINT LeftHand
                  {
                    OFFSET 24.5451 1.51738e-005 0
                    CHANNELS 3 Zrotation Xrotation Yrotation
                    End Site
                    {
                      OFFSET 0 0 0
                    }
                  }
                }
              }
            }
            JOINT Neck
            {
              OFFSET 5.0226 -0.0266342 0
              CHANNELS 3 Zrotation Xrotation Yrotation
              JOINT Head
              {
                OFFSET 6.69364 2.86102e-005 0
                CHANNELS 3 Zrotation Xrotation Yrotation
                End Site
                {
                  OFFSET 0 0 0
                }
              }
            }
          }
        }
      }
    }
  }
}
MOTION
Frames:	15
Frame Time:	0.0416667
-23.4573 91.4935 3.56352 101.356 30.9419 75.2123 -174.577 20.7942 77.8556 -49.7906 15.0571 -2.56457 77.7522 12.2746 1.2326 13.5926 -13.8622 8.11474 174.537 16.0927 83.1083 -90.27 -12.3457 -4.5258 61.0085 -1.21601 -4.22756 21.9295 -0.116673 8.49708 -0.0780267 7.94482 -89.1011 10.978 0.261083 1.76521 -0.694062 0.338494 1.75201 -23.2196 -0.28142 1.76209 -3.20698 -0.281439 1.76208 93.1639 -26.4658 -101.518 51.8831 7.55795 6.53931 -3.8126 -12.9789 -4.90024 -18.7974 1.63438 -15.491 -86.6225 -49.2475 83.6708 -5.20966 -23.8707 -13.6482 14.1813 48.2998 -18.4961 7.71262 1.12563 9.46835 1.42626 7.03626 -0.171052 -9.89955 6.5215 6.19467 
-19.2221 95.6004 0.488063 103.42 29.8782 78.491 -174.839 11.2764 82.5771 -41.8451 15.2078 -1.72316 74.7446 10.5155 0.757661 15.0821 -12.3038 7.3727 175.1 20.8771 87.8173 -87.1676 -0.302832 -3.57416 63.79 -2.5741 -4.6911 18.5074 1.01438 8.67147 -0.263519 8.09597 -89.7185 10.6827 -0.395119 0.595741 -0.98837 -0.368501 0.612544 -23.5233 -0.555892 0.44945 -3.51066 -0.555884 0.449451 93.5069 -23.4105 -101.796 50.9193 8.13683 7.45552 -3.74399 -11.351 -4.8957 -17.3195 1.67962 -16.6818 -85.6836 -42.0712 83.9836 -9.15984 -22.4831 -9.85883 18.8488 41.9508 -26.6112 7.87211 1.37521 11.8723 -2.96964 7.29932 1.28815 -9.80017 6.58205 7.23642 
-15.0268 101.132 -2.90655 106.344 29.4659 80.9646 -174.964 3.19778 86.7472 -33.2197 15.985 -0.373064 60.5011 0.304071 -0.634042 16.9827 -8.73223 4.04687 175.348 20.2256 90.8035 -76.4019 -0.190605 -2.67962 64.2245 -2.2251 -4.76722 18.2614 1.40305 7.9084 -0.341452 8.30254 -90.3845 10.2646 -0.855992 -0.689432 -1.40622 -0.885513 -0.651098 -23.9411 -0.60925 -0.914815 -3.92849 -0.609239 -0.914812 93.2499 -21.0377 -103.247 48.7796 9.47501 9.96714 -3.92775 -15.6851 -4.91482 -15.381 1.74613 -18.6902 -84.9531 -39.8826 84.8472 -11.1337 -21.1737 -13.1811 15.5559 41.1397 -22.3552 10.4015 1.29718 8.11895 -11.3411 6.7899 4.81379 -7.62171 6.192 7.58073 
-10.8958 105.572 -5.90068 107.02 30.8585 82.4048 -175.435 1.83138 88.8846 -30.932 21.4643 1.06304 48.5113 -7.98795 -3.43451 8.64962 -11.5387 0.759048 175.815 19.3439 91.657 -64.0583 -2.73132 -1.96109 65.8691 -3.11481 -2.56635 19.6128 1.20334 7.13634 -0.319818 8.33935 -90.7031 10.1865 -0.958084 -1.31419 -1.48474 -1.01499 -1.27077 -24.0155 -0.518891 -1.54133 -4.00284 -0.518867 -1.54133 92.2878 -21.5064 -105.283 45.7927 11.2073 13.7737 -4.15319 -20.8133 -4.95775 -14.5512 1.74326 -19.603 -84.6688 -37.3053 84.9188 -14.2486 -18.3786 -23.4828 4.5328 41.5549 -6.05504 14.1633 1.14038 4.01341 -17.4722 5.3686 3.89503 -4.97057 5.20094 8.20206 
-6.99447 107.515 -8.20784 106.004 34.3756 81.8559 -175.897 6.34653 88.9726 -35.2313 24.0602 1.12733 46.2238 -9.35772 -4.34794 10.772 -12.1185 3.2673 175.819 19.6987 90.2921 -52.7794 -2.38177 -1.67267 69.0407 -5.05318 -1.8702 22.4551 0.990788 4.82033 -0.36293 8.3101 -90.6164 10.2475 -1.00463 -1.13827 -1.42353 -1.05373 -1.09296 -23.9561 -0.616107 -1.38754 -3.94348 -0.616128 -1.38754 92.0574 -22.6439 -105.337 45.1617 12.0226 16.6327 -4.22864 -22.4719 -4.97708 -12.6964 1.50299 -19.4789 -84.628 -37.4791 85.0189 -15.7344 -17.6086 -27.495 3.66617 43.0474 -4.72484 12.5491 1.06568 4.46333 -18.4889 3.81465 2.11872 -3.39873 3.77516 6.8756 
-3.14414 107.951 -10.1821 106.683 37.374 80.851 -174.786 9.4111 89.9419 -34.6857 22.2733 -0.0234495 44.8861 -10.0434 -5.89353 19.7222 -9.25196 7.3637 176.22 16.6382 89.6026 -39.0355 -2.36435 -1.97247 71.8362 -6.82558 -0.451852 25.0956 -0.286951 5.64439 -0.315633 8.4358 -90.5077 9.9979 -0.859857 -0.936763 -1.67308 -0.900229 -0.89803 -24.2066 -0.538584 -1.15186 -4.19394 -0.538565 -1.15186 91.924 -24.3594 -104.944 45.9229 12.3627 18.7161 -4.17229 -21.2367 -4.96265 -12.5479 1.49567 -19.5924 -84.8246 -37.1924 84.6252 -18.2026 -16.1153 -28.8086 3.79956 43.9724 -4.87627 10.8862 1.08522 5.72025 -18.1931 2.4543 -0.631696 -3.05862 2.36115 6.58995 
0.726419 106.73 -12.241 106 40.0604 81.2692 -174.22 12.7413 90.9172 -29.7508 15.8159 -1.02712 48.942 -7.72903 -4.91286 12.5418 -11.7891 4.32732 176.018 13.702 89.1232 -24.6092 -7.58687 -1.50212 69.3884 -6.09043 -0.835298 28.3131 -0.417107 2.07474 -0.337873 8.44376 -90.4403 9.98264 -0.873452 -0.802166 -1.68824 -0.907907 -0.762949 -24.2226 -0.591989 -1.02758 -4.20999 -0.592003 -1.02758 91.5869 -25.6609 -105.165 47.0875 12.4167 19.8057 -4.15848 -20.9313 -4.95925 -13.0588 1.61637 -20.0902 -84.7846 -38.68 84.9417 -19.5218 -15.2988 -27.8427 3.81823 44.2563 -4.89519 11.479 1.14072 5.74056 -17.0561 1.71301 -2.08399 -3.51098 1.60058 5.36113 
4.62543 103.432 -14.3322 102.886 43.1444 83.6141 -175.383 18.2972 91.2918 -26.1737 12.5079 -0.657601 57.4817 -2.50725 -3.29785 8.71071 -17.3819 8.16533 174.844 14.8963 88.9788 -17.5862 -9.75631 0.275742 66.7169 -4.9727 -0.566933 29.4567 -0.636133 1.21668 -0.413753 8.34747 -90.4576 10.1748 -1.03314 -0.820757 -1.49597 -1.06826 -0.774492 -24.031 -0.738713 -1.0933 -4.01832 -0.738728 -1.0933 91.211 -27.0075 -105.444 47.7886 12.1446 19.2105 -4.10821 -19.812 -4.94786 -13.3662 1.70413 -20.4986 -84.9685 -41.4619 85.0749 -20.4523 -14.7544 -26.4566 3.83295 44.479 -4.91 11.1568 1.2116 6.5149 -13.095 1.23125 -3.77741 -5.13842 1.16053 5.1054 
8.43168 97.6776 -16.2677 100.168 45.0494 85.9729 -178.579 26.9244 92.1105 -33.6567 28.3276 2.02351 56.0561 -3.21809 -1.31917 5.38236 -17.727 5.74739 172.767 22.104 89.5028 -28.4908 -8.12486 2.47603 66.9773 -4.39869 0.674894 31.2821 -1.03788 0.0902116 -0.378721 8.36519 -90.469 10.1392 -0.968427 -0.849367 -1.53162 -1.00488 -0.805929 -24.0661 -0.668423 -1.10114 -4.05348 -0.668403 -1.10114 89.7865 -30.2416 -107.085 45.8416 12.2671 18.2473 -4.10468 -19.7339 -4.9477 -13.4816 1.77404 -20.9822 -85.7291 -45.4474 84.4576 -19.9772 -15.0675 -24.9106 3.89533 45.4548 -4.97091 9.48241 1.18428 7.88524 -5.46926 0.837386 -5.02754 -7.80697 1.09845 3.56413 
11.9295 91.2869 -17.9212 102.317 46.3846 85.4263 178.385 32.0727 94.3467 -53.1079 30.9502 5.25705 68.0725 5.96251 1.21107 18.1928 -10.7833 8.17277 171.196 28.1467 90.6746 -44.0145 -13.8482 3.44202 66.9767 -3.98122 -0.570424 18.3784 1.53431 7.46463 -0.345763 8.56432 -90.515 9.74051 -0.922234 -0.948675 -1.93042 -0.96311 -0.907168 -24.4641 -0.594527 -1.18197 -4.45143 -0.594494 -1.18196 89.1686 -32.9493 -107.255 43.6599 12.434 17.1362 -4.32906 -24.6264 -5.0054 -12.3362 1.46007 -19.512 -87.0972 -50.0445 83.0876 -18.1747 -16.1027 -20.7007 4.10382 47.3934 -5.21579 8.06715 1.01492 7.6859 0.526614 0.465765 -4.96103 -6.69901 1.02508 3.09776 
14.289 85.7017 -18.7276 100.047 44.156 86.4018 179.689 40.0467 95.0921 -68.2537 28.6449 4.22676 76.1333 12.0751 2.23228 20.9559 -10.9677 11.2694 170.293 38.5629 93.2988 -63.1773 -14.0269 1.22905 72.3974 -8.85156 -3.44103 25.3625 -0.608702 6.34452 -0.0916476 8.56314 -90.4034 9.74604 -0.365303 -0.769497 -1.92507 -0.398824 -0.75267 -24.4585 -0.117168 -0.843702 -4.44585 -0.11717 -0.843704 91.1012 -34.2633 -103.161 43.4999 10.962 10.3111 -4.78851 -33.6571 -5.18285 -15.1501 1.26725 -15.1557 -86.2269 -55.6137 85.2003 -18.0899 -16.1581 -18.9532 4.28344 50.0034 -5.38142 8.47245 1.0756 7.96065 7.89862 0.989515 -1.487 -5.02261 1.31668 -0.595609 
16.8561 83.9249 -20.7772 102.41 42.3476 84.4877 -179.334 38.3587 95.0426 -74.1392 25.8136 4.22879 81.98 16.3721 2.06673 21.1429 -10.4432 10.6784 169.41 37.4501 93.1248 -69.481 -15.4195 0.804134 77.0725 -12.4898 -3.63886 26.3169 -0.658217 5.38997 -0.0144754 8.71209 -90.2726 9.44876 -0.151461 -0.529651 -2.2223 -0.174648 -0.522482 -24.7566 0.0146998 -0.550688 -4.74392 0.0147012 -0.550691 89.9834 -33.8209 -105.407 44.7964 9.61202 6.03183 -4.76166 -33.1684 -5.16918 -16.9598 1.64185 -16.7067 -86.5354 -56.1772 84.8362 -21.2988 -14.6674 -12.7025 4.73219 55.0223 -5.81105 11.8725 1.42098 7.75174 6.60342 1.44404 -1.53794 -0.770492 1.71529 -0.436101 
19.1163 84.2763 -22.7848 103.163 42.4678 83.6783 -179.115 35.9859 95.0315 -74.9568 26.0603 4.37868 81.3453 15.8089 1.7166 23.9548 -7.26625 8.49162 168.844 35.1778 92.3696 -70.7702 -15.6755 0.80446 79.2721 -13.8521 -3.42896 26.0325 -0.301735 4.59278 0.0452633 8.55983 -90.3319 9.75368 -0.0599586 -0.653436 -1.91742 -0.0886672 -0.650172 -24.4513 0.139182 -0.641253 -4.43867 0.139188 -0.641253 90.2143 -32.9775 -105.26 44.5183 9.07936 3.44804 -5.11873 -39.247 -5.34578 -16.616 1.69658 -17.3027 -86.4248 -56.7251 85.0675 -24.3971 -13.5378 -8.30678 4.49602 56.2174 -5.50427 8.01039 0.821012 5.39881 5.20973 1.21778 -0.931314 -1.71599 1.36932 -0.603908 
21.2191 86.6794 -24.491 103.682 41.2093 82.7144 -176.845 31.4869 94.9288 -70.937 27.0435 3.55048 79.7067 14.7122 2.22737 27.4397 -4.84564 8.05658 170.094 30.4458 91.2658 -66.6948 -16.0482 0.592935 79.2874 -13.8255 -3.37365 26.1325 -0.35194 4.63132 0.303298 8.46504 -90.3718 9.94469 0.435483 -0.773416 -1.72642 0.400985 -0.791831 -24.2609 0.64778 -0.606779 -4.24827 0.64777 -0.60679 91.0568 -32.0765 -103.949 46.0159 8.20887 2.02737 -4.86299 -34.9814 -5.2156 -19.5326 1.8333 -16.2274 -86.614 -58.2913 85.0176 -25.9889 -13.0068 -2.76841 9.45564 53.2533 -11.7296 7.18753 0.819429 6.47959 4.53843 0.777257 -0.397087 -1.36854 0.836101 -0.910104 
22.9866 89.8469 -26.1478 104.283 41.001 81.2783 -175.409 24.7696 94.5558 -62.8625 27.9783 2.72944 80.7297 14.6021 -0.608046 21.3861 -8.99176 8.65655 170.889 24.2438 89.3315 -59.3034 -16.5149 0.509107 79.0436 -13.2879 -2.6066 26.1939 -0.290585 4.36276 0.314871 8.30586 -90.2133 10.263 0.529968 -0.468823 -1.40789 0.508821 -0.491698 -23.9436 0.646384 -0.28787 -3.93095 0.646365 -0.287874 90.1165 -33.1043 -105.402 46.4939 8.22375 2.71906 -4.62827 -30.667 -5.11178 -20.1868 2.03762 -17.0165 -86.283 -57.2204 85.3314 -27.3637 -12.8636 -1.98231 3.92895 49.7778 -4.91686 10.5396 1.14228 6.49536 3.03918 0.532573 -0.925087 -1.03448 0.676544 -1.12854 
